<svg xmlns="http://www.w3.org/2000/svg" xmlns:xlink="http://www.w3.org/1999/xlink" width="500" zoomAndPan="magnify" viewBox="0 0 375 374.999991" height="500" preserveAspectRatio="xMidYMid meet" version="1.0"><path fill="#d0d0c0" d="M 8.554688 8.554688 L 187.453125 8.554688 L 187.453125 187.453125 L 8.554688 187.453125 Z M 8.554688 8.554688 " fill-opacity="1" fill-rule="evenodd"/><path fill="#d0d0c0" d="M 187.453125 8.554688 L 366.355469 8.554688 L 366.355469 187.453125 L 187.453125 187.453125 Z M 187.453125 8.554688 " fill-opacity="1" fill-rule="evenodd"/><path fill="#d0d0c0" d="M 187.453125 187.453125 L 366.355469 187.453125 L 366.355469 366.355469 L 187.453125 366.355469 Z M 187.453125 187.453125 " fill-opacity="1" fill-rule="evenodd"/><path fill="#d0d0c0" d="M 8.554688 187.453125 L 187.453125 187.453125 L 187.453125 366.355469 L 8.554688 366.355469 Z M 8.554688 187.453125 " fill-opacity="1" fill-rule="evenodd"/><path fill="#3b434b" d="M -0.0351562 8.554688 L -0.0351562 366.355469 C -0.0351562 371.097656 3.8125 374.941406 8.554688 374.941406 L 366.355469 374.941406 C 368.710938 374.941406 370.839844 373.996094 372.390625 372.464844 L 372.746094 372.089844 L 373.078125 371.699219 L 373.589844 370.984375 L 373.929688 370.402344 L 374.183594 369.890625 C 374.335938 369.558594 374.464844 369.214844 374.570312 368.863281 L 374.574219 368.859375 C 374.742188 368.304688 374.855469 367.730469 374.90625 367.132812 L 374.941406 366.355469 L 374.941406 8.554688 C 374.941406 3.8125 371.097656 -0.0351562 366.355469 -0.0351562 L 8.554688 -0.0351562 C 3.8125 -0.0351562 -0.0351562 3.8125 -0.0351562 8.554688 Z M 178.867188 357.769531 L 178.867188 196.042969 L 17.140625 196.042969 L 17.140625 357.769531 Z M 269.207031 357.769531 L 196.042969 357.769531 L 196.042969 196.042969 C 196.042969 196.042969 357.769531 196.042969 357.769531 196.042969 C 357.769531 196.042969 357.769531 357.769531 357.769531 357.769531 Z M 94.035156 264.761719 L 74.210938 244.9375 C 70.859375 241.585938 65.417969 241.585938 62.066406 244.9375 C 58.714844 248.289062 58.714844 253.726562 62.066406 257.078125 L 81.894531 276.90625 L 62.066406 296.730469 C 58.714844 300.082031 58.714844 305.523438 62.066406 308.875 C 65.417969 312.226562 70.859375 312.226562 74.210938 308.875 L 94.035156 289.046875 L 113.863281 308.875 C 117.214844 312.226562 122.65625 312.226562 126.007812 308.875 C 129.355469 305.523438 129.355469 300.082031 126.007812 296.730469 L 106.179688 276.90625 L 126.007812 257.078125 C 129.355469 253.726562 129.355469 248.289062 126.007812 244.9375 C 122.65625 241.585938 117.214844 241.585938 113.863281 244.9375 Z M 247.421875 303.804688 L 308.167969 303.804688 C 312.90625 303.804688 316.753906 299.957031 316.753906 295.21875 C 316.753906 290.480469 312.90625 286.632812 308.167969 286.632812 L 247.421875 286.632812 C 242.683594 286.632812 238.835938 290.480469 238.835938 295.21875 C 238.835938 299.957031 242.683594 303.804688 247.421875 303.804688 Z M 245.644531 267.179688 L 306.390625 267.179688 C 311.128906 267.179688 314.976562 263.332031 314.976562 258.59375 C 314.976562 253.855469 311.128906 250.007812 306.390625 250.007812 L 245.644531 250.007812 C 240.90625 250.007812 237.058594 253.855469 237.058594 258.59375 C 237.058594 263.332031 240.90625 267.179688 245.644531 267.179688 Z M 17.140625 17.140625 L 17.140625 178.867188 L 178.867188 178.867188 L 178.867188 17.140625 Z M 196.042969 17.140625 L 357.769531 17.140625 L 357.769531 178.867188 L 196.042969 178.867188 Z M 85.449219 89.417969 L 57.410156 89.417969 C 52.671875 89.417969 48.824219 93.265625 48.824219 98.003906 C 48.824219 102.742188 52.671875 106.589844 57.410156 106.589844 L 85.449219 106.589844 L 85.449219 134.628906 C 85.449219 139.367188 89.296875 143.214844 94.035156 143.214844 C 98.773438 143.214844 102.621094 139.367188 102.621094 134.628906 L 102.621094 106.589844 L 130.660156 106.589844 C 135.402344 106.589844 139.246094 102.742188 139.246094 98.003906 C 139.246094 93.265625 135.402344 89.417969 130.660156 89.417969 L 102.621094 89.417969 L 102.621094 61.378906 C 102.621094 56.640625 98.773438 52.792969 94.035156 52.792969 C 89.296875 52.792969 85.449219 56.640625 85.449219 61.378906 Z M 302.804688 111.726562 C 296.082031 111.726562 290.628906 117.183594 290.628906 123.902344 C 290.628906 130.621094 296.082031 136.078125 302.804688 136.078125 C 309.523438 136.078125 314.980469 130.621094 314.980469 123.902344 C 314.980469 117.183594 309.523438 111.726562 302.804688 111.726562 Z M 296.730469 66.035156 L 244.9375 117.828125 C 241.585938 121.179688 241.585938 126.621094 244.9375 129.972656 C 248.289062 133.324219 253.726562 133.324219 257.078125 129.972656 L 308.875 78.179688 C 312.226562 74.828125 312.226562 69.386719 308.875 66.035156 C 305.523438 62.683594 300.082031 62.683594 296.730469 66.035156 Z M 251.007812 59.929688 C 244.289062 59.929688 238.832031 65.386719 238.832031 72.105469 C 238.832031 78.824219 244.289062 84.28125 251.007812 84.28125 C 257.726562 84.28125 263.183594 78.824219 263.183594 72.105469 C 263.183594 65.386719 257.726562 59.929688 251.007812 59.929688 Z M 251.007812 59.929688 " fill-opacity="1" fill-rule="evenodd"/></svg>